<svg xmlns="http://www.w3.org/2000/svg" viewBox="0 0 31.4 31.4"><defs><style>.cls-1{fill:#87cdea;}</style></defs><title>0.2</title><g id="Layer_2" data-name="Layer 2"><g id="Layer_1-2" data-name="Layer 1"><path class="cls-1" d="M15.7,31.4A15.7,15.7,0,0,1,4.6,4.6,15.7,15.7,0,0,1,31.4,15.7,15.67,15.67,0,0,1,15.7,31.4Zm0-28.86A13.17,13.17,0,1,0,28.87,15.7,13.17,13.17,0,0,0,15.7,2.54Z"/><path class="cls-1" d="M19.85,20.65a1.14,1.14,0,0,1-.82-.34l-4-4a1.13,1.13,0,0,1-.34-.82V7.58a1.17,1.17,0,0,1,2.33,0V15l3.62,3.63a1.15,1.15,0,0,1,0,1.64A1.13,1.13,0,0,1,19.85,20.65Z"/></g></g></svg>