<svg xmlns="http://www.w3.org/2000/svg" viewBox="0 0 19.14 14.35"><defs><style>.cls-1{opacity:0.42;}.cls-2{fill:#fff;}</style></defs><title>Ресурс 45</title><g id="Слой_2" data-name="Слой 2"><g id="Grid"><g class="cls-1"><path class="cls-2" d="M16.74,0H2.39A2.39,2.39,0,0,0,0,2.39V12a2.39,2.39,0,0,0,2.39,2.39H16.74A2.39,2.39,0,0,0,19.14,12V2.39A2.39,2.39,0,0,0,16.74,0ZM12.81,6.38,17.87,2a1.15,1.15,0,0,1,.07.35V12a1.14,1.14,0,0,1,0,.23ZM16.74,1.2a1.11,1.11,0,0,1,.22,0L9.57,7.59,2.17,1.24a1.11,1.11,0,0,1,.22,0Zm-15.5,11a1.12,1.12,0,0,1,0-.23V2.39A1.15,1.15,0,0,1,1.27,2L6.33,6.38Zm1.15,1a1.15,1.15,0,0,1-.34-.07L7.24,7.16,9.18,8.83a.59.59,0,0,0,.78,0L11.9,7.16l5.19,5.93a1.14,1.14,0,0,1-.34.07Zm0,0"/></g></g></g></svg>