<svg xmlns="http://www.w3.org/2000/svg" xmlns:xlink="http://www.w3.org/1999/xlink" viewBox="0 0 84.19 31.91"><defs><style>.cls-1{fill:url(#Безымянный_градиент_3);}.cls-2{fill:#45b3e0;}.cls-3{fill:#fff;}</style><linearGradient id="Безымянный_градиент_3" y1="15.95" x2="31.91" y2="15.95" gradientUnits="userSpaceOnUse"><stop offset="0" stop-color="#fff"/><stop offset="1" stop-color="#fff"/></linearGradient></defs><title>Logo-2</title><g id="Layer_2" data-name="Layer 2"><g id="Grid"><rect class="cls-1" width="31.91" height="31.91"/><path class="cls-2" d="M11.71,25.43V6.48h4.11V21.82H23v3.61Z"/><path class="cls-3" d="M45.87,22.52V6.9h2V20.83h6.83v1.69Z"/><path class="cls-3" d="M56.59,27.5a4.18,4.18,0,0,1-.74-.06,3,3,0,0,1-.62-.18l.38-1.54.43.1a1.86,1.86,0,0,0,.45.06,2.11,2.11,0,0,0,1.64-.7,4.87,4.87,0,0,0,1-1.77l.27-.86L54.73,11h2l2.35,6.41c.18.51.36,1,.56,1.6s.39,1.12.56,1.66h.1c.17-.52.34-1.07.5-1.64s.32-1.11.47-1.62L63.38,11h1.9L60.92,23.48a11.54,11.54,0,0,1-.69,1.59,5.24,5.24,0,0,1-.9,1.28,4.09,4.09,0,0,1-1.19.84A3.61,3.61,0,0,1,56.59,27.5Z"/><path class="cls-3" d="M71.16,22.81a3.62,3.62,0,0,1-1.56-.29,2.67,2.67,0,0,1-1-.78A3.05,3.05,0,0,1,68,20.52,6.93,6.93,0,0,1,67.85,19v-6.4H66.14V11.07L68,11l.24-3.24h1.64V11H73v1.6H69.83V19a3,3,0,0,0,.39,1.65,1.56,1.56,0,0,0,1.39.59,2.79,2.79,0,0,0,.67-.1,4.37,4.37,0,0,0,.64-.21l.38,1.47a10.65,10.65,0,0,1-1,.3A4.67,4.67,0,0,1,71.16,22.81Z"/><path class="cls-3" d="M79.93,22.81a5.61,5.61,0,0,1-2.18-.42A5,5,0,0,1,76,21.2a5.31,5.31,0,0,1-1.17-1.89,7,7,0,0,1-.43-2.55,6.91,6.91,0,0,1,.44-2.56A6,6,0,0,1,76,12.29a5.1,5.1,0,0,1,1.66-1.21,4.78,4.78,0,0,1,1.93-.41,4.73,4.73,0,0,1,2,.38A3.87,3.87,0,0,1,83,12.14a5.28,5.28,0,0,1,.89,1.72,7.72,7.72,0,0,1,.31,2.24c0,.2,0,.4,0,.6a3.25,3.25,0,0,1-.06.51H76.31a4.56,4.56,0,0,0,1.15,2.95,3.57,3.57,0,0,0,2.7,1.08A4.48,4.48,0,0,0,81.7,21,6.67,6.67,0,0,0,83,20.33l.7,1.29a9.26,9.26,0,0,1-1.7.83A5.76,5.76,0,0,1,79.93,22.81Zm-3.65-7h6.19a4.15,4.15,0,0,0-.75-2.68,2.57,2.57,0,0,0-2.1-.92,2.93,2.93,0,0,0-1.18.24,3.16,3.16,0,0,0-1,.7,3.73,3.73,0,0,0-.76,1.14A5.21,5.21,0,0,0,76.28,15.81Z"/></g></g></svg>