<svg xmlns="http://www.w3.org/2000/svg" viewBox="0 0 19.49 15.83"><defs><style>.cls-1{opacity:0.49;}.cls-2{fill:#fff;}</style></defs><title>Ресурс 44</title><g id="Слой_2" data-name="Слой 2"><g id="Grid"><g class="cls-1"><path class="cls-2" d="M19.49,1.87a8,8,0,0,1-2.3.63A4,4,0,0,0,19,.29a8,8,0,0,1-2.55,1A4,4,0,0,0,9.52,3.6,4.12,4.12,0,0,0,9.6,4.91,11.35,11.35,0,0,1,1.36.73,4,4,0,0,0,2.59,6.06a3.94,3.94,0,0,1-1.81-.5v0A4,4,0,0,0,4,9.54a4.12,4.12,0,0,1-1.05.14,4,4,0,0,1-.76-.07,4,4,0,0,0,3.73,2.78,8,8,0,0,1-5,1.71A8.58,8.58,0,0,1,0,14a11.31,11.31,0,0,0,6.13,1.79A11.29,11.29,0,0,0,17.5,4.46V3.94a8.05,8.05,0,0,0,2-2.07Zm-.12,0"/></g></g></g></svg>